<svg width="66" height="66" viewBox="0 0 66 66" fill="none" xmlns="http://www.w3.org/2000/svg">
<circle cx="33" cy="33" r="32.5" fill="#FFD12E" stroke="#E8E8E8"/>
<path d="M45.3333 15H19.6667C17.6445 15 16 16.794 16 19V47C16 49.206 17.6445 51 19.6667 51H34.3333C34.5735 51 34.81 50.948 35.0318 50.848C35.2537 50.748 35.4572 50.602 35.6295 50.414L48.4628 36.414C48.6205 36.242 48.7323 36.04 48.8222 35.828C48.8478 35.768 48.8625 35.706 48.8827 35.642C48.934 35.474 48.967 35.302 48.9762 35.124C48.9798 35.082 49 35.042 49 35V19C49 16.794 47.3555 15 45.3333 15ZM19.6667 19H45.3333V33H34.3333C33.3195 33 32.5 33.896 32.5 35V47H19.6667V19ZM36.1667 44.172V37H42.741L36.1667 44.172Z" fill="white"/>
</svg>
